<mxfile host="app.diagrams.net" modified="2024-02-24T17:24:16.035Z" agent="Mozilla/5.0 (Windows NT 10.0; Win64; x64) AppleWebKit/537.36 (KHTML, like Gecko) Chrome/121.0.0.0 Safari/537.36" etag="saLAaHtml5S7bdWRVE-6" version="23.1.5" type="device">
  <diagram id="C5RBs43oDa-KdzZeNtuy" name="Page-1">
    <mxGraphModel dx="3187" dy="1640" grid="1" gridSize="10" guides="1" tooltips="1" connect="1" arrows="1" fold="1" page="1" pageScale="1" pageWidth="827" pageHeight="1169" background="none" math="0" shadow="0">
      <root>
        <mxCell id="WIyWlLk6GJQsqaUBKTNV-0" />
        <mxCell id="WIyWlLk6GJQsqaUBKTNV-1" parent="WIyWlLk6GJQsqaUBKTNV-0" />
        <mxCell id="eG1vH4hT44DBcO4QuvE--2" value="" style="edgeStyle=orthogonalEdgeStyle;rounded=0;orthogonalLoop=1;jettySize=auto;html=1;fontSize=14;" edge="1" parent="WIyWlLk6GJQsqaUBKTNV-1" source="eG1vH4hT44DBcO4QuvE--0" target="eG1vH4hT44DBcO4QuvE--1">
          <mxGeometry relative="1" as="geometry" />
        </mxCell>
        <mxCell id="eG1vH4hT44DBcO4QuvE--0" value="Start/&lt;b style=&quot;font-size: 14px;&quot;&gt;Active s&lt;/b&gt;tate" style="strokeWidth=2;html=1;shape=mxgraph.flowchart.terminator;whiteSpace=wrap;rounded=0;fontSize=14;align=center;" vertex="1" parent="WIyWlLk6GJQsqaUBKTNV-1">
          <mxGeometry x="370" y="90" width="140" height="50" as="geometry" />
        </mxCell>
        <mxCell id="eG1vH4hT44DBcO4QuvE--26" value="" style="edgeStyle=orthogonalEdgeStyle;rounded=0;orthogonalLoop=1;jettySize=auto;html=1;fontSize=14;" edge="1" parent="WIyWlLk6GJQsqaUBKTNV-1" source="eG1vH4hT44DBcO4QuvE--1" target="eG1vH4hT44DBcO4QuvE--25">
          <mxGeometry relative="1" as="geometry" />
        </mxCell>
        <mxCell id="eG1vH4hT44DBcO4QuvE--1" value="Import and store &lt;b style=&quot;font-size: 14px;&quot;&gt;Session&lt;/b&gt;" style="shape=parallelogram;html=1;strokeWidth=2;perimeter=parallelogramPerimeter;whiteSpace=wrap;rounded=1;arcSize=12;size=0.23;spacing=5;spacingLeft=30;spacingRight=30;align=center;fontSize=14;" vertex="1" parent="WIyWlLk6GJQsqaUBKTNV-1">
          <mxGeometry x="350" y="170" width="180" height="60" as="geometry" />
        </mxCell>
        <mxCell id="eG1vH4hT44DBcO4QuvE--30" value="" style="edgeStyle=orthogonalEdgeStyle;rounded=0;orthogonalLoop=1;jettySize=auto;html=1;entryX=0.5;entryY=0;entryDx=0;entryDy=0;fontSize=14;" edge="1" parent="WIyWlLk6GJQsqaUBKTNV-1" target="eG1vH4hT44DBcO4QuvE--120">
          <mxGeometry relative="1" as="geometry">
            <mxPoint x="440" y="500" as="sourcePoint" />
            <mxPoint x="440" y="540" as="targetPoint" />
          </mxGeometry>
        </mxCell>
        <mxCell id="eG1vH4hT44DBcO4QuvE--33" value="No" style="edgeLabel;html=1;align=center;verticalAlign=middle;resizable=0;points=[];fontSize=14;" vertex="1" connectable="0" parent="eG1vH4hT44DBcO4QuvE--30">
          <mxGeometry x="-0.0277" y="1" relative="1" as="geometry">
            <mxPoint x="-1" y="-4" as="offset" />
          </mxGeometry>
        </mxCell>
        <mxCell id="eG1vH4hT44DBcO4QuvE--27" value="" style="edgeStyle=orthogonalEdgeStyle;rounded=0;orthogonalLoop=1;jettySize=auto;html=1;entryX=0.5;entryY=0;entryDx=0;entryDy=0;fontSize=14;" edge="1" parent="WIyWlLk6GJQsqaUBKTNV-1" source="eG1vH4hT44DBcO4QuvE--25" target="eG1vH4hT44DBcO4QuvE--52">
          <mxGeometry relative="1" as="geometry">
            <mxPoint x="440" y="350" as="targetPoint" />
          </mxGeometry>
        </mxCell>
        <mxCell id="eG1vH4hT44DBcO4QuvE--25" value="Display payment options and Session details" style="rounded=1;whiteSpace=wrap;html=1;absoluteArcSize=1;arcSize=14;strokeWidth=2;fontSize=14;" vertex="1" parent="WIyWlLk6GJQsqaUBKTNV-1">
          <mxGeometry x="365" y="260" width="150" height="70" as="geometry" />
        </mxCell>
        <mxCell id="eG1vH4hT44DBcO4QuvE--155" style="edgeStyle=orthogonalEdgeStyle;rounded=0;orthogonalLoop=1;jettySize=auto;html=1;entryX=0.5;entryY=0;entryDx=0;entryDy=0;fontSize=14;" edge="1" parent="WIyWlLk6GJQsqaUBKTNV-1" source="eG1vH4hT44DBcO4QuvE--52" target="eG1vH4hT44DBcO4QuvE--113">
          <mxGeometry relative="1" as="geometry" />
        </mxCell>
        <mxCell id="eG1vH4hT44DBcO4QuvE--156" value="Yes" style="edgeLabel;html=1;align=center;verticalAlign=middle;resizable=0;points=[];fontSize=14;" vertex="1" connectable="0" parent="eG1vH4hT44DBcO4QuvE--155">
          <mxGeometry x="-0.956" y="-1" relative="1" as="geometry">
            <mxPoint y="-1" as="offset" />
          </mxGeometry>
        </mxCell>
        <mxCell id="eG1vH4hT44DBcO4QuvE--52" value="Does customer want to &lt;b style=&quot;font-size: 14px;&quot;&gt;C&lt;span style=&quot;font-size: 14px;&quot;&gt;ancel &lt;/span&gt;&lt;/b&gt;the transaction?" style="rhombus;whiteSpace=wrap;html=1;strokeWidth=2;rounded=1;arcSize=12;spacing=5;spacingLeft=30;spacingRight=30;fontSize=14;spacingBottom=10;" vertex="1" parent="WIyWlLk6GJQsqaUBKTNV-1">
          <mxGeometry x="360" y="380" width="160" height="120" as="geometry" />
        </mxCell>
        <mxCell id="eG1vH4hT44DBcO4QuvE--112" value="" style="edgeStyle=orthogonalEdgeStyle;rounded=0;orthogonalLoop=1;jettySize=auto;html=1;entryX=0.5;entryY=0;entryDx=0;entryDy=0;entryPerimeter=0;fontSize=14;" edge="1" parent="WIyWlLk6GJQsqaUBKTNV-1" source="eG1vH4hT44DBcO4QuvE--113" target="eG1vH4hT44DBcO4QuvE--153">
          <mxGeometry relative="1" as="geometry">
            <mxPoint x="1230" y="800" as="targetPoint" />
            <Array as="points">
              <mxPoint x="1230" y="1370" />
              <mxPoint x="440" y="1370" />
            </Array>
          </mxGeometry>
        </mxCell>
        <mxCell id="eG1vH4hT44DBcO4QuvE--113" value="Clear &lt;b style=&quot;font-size: 14px;&quot;&gt;Session&lt;/b&gt;" style="rounded=1;whiteSpace=wrap;html=1;absoluteArcSize=1;arcSize=14;strokeWidth=2;fontSize=14;spacing=5;spacingLeft=2;spacingRight=2;" vertex="1" parent="WIyWlLk6GJQsqaUBKTNV-1">
          <mxGeometry x="1160" y="700" width="140" height="70" as="geometry" />
        </mxCell>
        <mxCell id="eG1vH4hT44DBcO4QuvE--116" value="" style="edgeStyle=orthogonalEdgeStyle;rounded=0;orthogonalLoop=1;jettySize=auto;html=1;fontSize=14;" edge="1" parent="WIyWlLk6GJQsqaUBKTNV-1" source="eG1vH4hT44DBcO4QuvE--120" target="eG1vH4hT44DBcO4QuvE--123">
          <mxGeometry relative="1" as="geometry" />
        </mxCell>
        <mxCell id="eG1vH4hT44DBcO4QuvE--117" value="No" style="edgeLabel;html=1;align=center;verticalAlign=middle;resizable=0;points=[];fontSize=14;" vertex="1" connectable="0" parent="eG1vH4hT44DBcO4QuvE--116">
          <mxGeometry x="-0.0974" y="1" relative="1" as="geometry">
            <mxPoint x="-2" y="1" as="offset" />
          </mxGeometry>
        </mxCell>
        <mxCell id="eG1vH4hT44DBcO4QuvE--118" value="" style="edgeStyle=orthogonalEdgeStyle;rounded=0;orthogonalLoop=1;jettySize=auto;html=1;fontSize=14;" edge="1" parent="WIyWlLk6GJQsqaUBKTNV-1" source="eG1vH4hT44DBcO4QuvE--120" target="eG1vH4hT44DBcO4QuvE--126">
          <mxGeometry relative="1" as="geometry" />
        </mxCell>
        <mxCell id="eG1vH4hT44DBcO4QuvE--119" value="Yes" style="edgeLabel;html=1;align=center;verticalAlign=middle;resizable=0;points=[];fontSize=14;" vertex="1" connectable="0" parent="eG1vH4hT44DBcO4QuvE--118">
          <mxGeometry x="-0.08" y="2" relative="1" as="geometry">
            <mxPoint x="-2" y="-3" as="offset" />
          </mxGeometry>
        </mxCell>
        <mxCell id="eG1vH4hT44DBcO4QuvE--120" value="Is customer paying with &lt;b style=&quot;font-size: 14px;&quot;&gt;Credit Card&lt;/b&gt;?" style="rhombus;whiteSpace=wrap;html=1;strokeWidth=2;rounded=1;arcSize=12;spacing=5;spacingLeft=30;spacingRight=30;fontSize=14;" vertex="1" parent="WIyWlLk6GJQsqaUBKTNV-1">
          <mxGeometry x="360" y="540" width="160" height="120" as="geometry" />
        </mxCell>
        <mxCell id="eG1vH4hT44DBcO4QuvE--121" value="" style="edgeStyle=orthogonalEdgeStyle;rounded=0;orthogonalLoop=1;jettySize=auto;html=1;fontSize=14;" edge="1" parent="WIyWlLk6GJQsqaUBKTNV-1" source="eG1vH4hT44DBcO4QuvE--123" target="eG1vH4hT44DBcO4QuvE--124">
          <mxGeometry relative="1" as="geometry" />
        </mxCell>
        <mxCell id="eG1vH4hT44DBcO4QuvE--122" value="No" style="edgeLabel;html=1;align=center;verticalAlign=middle;resizable=0;points=[];fontSize=14;" vertex="1" connectable="0" parent="eG1vH4hT44DBcO4QuvE--121">
          <mxGeometry x="-0.0452" y="1" relative="1" as="geometry">
            <mxPoint x="-4" y="1" as="offset" />
          </mxGeometry>
        </mxCell>
        <mxCell id="eG1vH4hT44DBcO4QuvE--123" value="Is customer paying with &lt;b style=&quot;font-size: 14px;&quot;&gt;Bank Card&lt;/b&gt;?" style="rhombus;whiteSpace=wrap;html=1;strokeWidth=2;rounded=1;arcSize=12;spacing=5;spacingLeft=30;spacingRight=30;fontSize=14;" vertex="1" parent="WIyWlLk6GJQsqaUBKTNV-1">
          <mxGeometry x="560" y="540" width="160" height="120" as="geometry" />
        </mxCell>
        <mxCell id="eG1vH4hT44DBcO4QuvE--124" value="Is customer paying with &lt;b style=&quot;font-size: 14px;&quot;&gt;NFC Phone&lt;/b&gt;?" style="rhombus;whiteSpace=wrap;html=1;strokeWidth=2;rounded=1;arcSize=12;spacing=5;spacingLeft=30;spacingRight=30;fontSize=14;" vertex="1" parent="WIyWlLk6GJQsqaUBKTNV-1">
          <mxGeometry x="760" y="540" width="160" height="120" as="geometry" />
        </mxCell>
        <mxCell id="eG1vH4hT44DBcO4QuvE--125" value="" style="edgeStyle=orthogonalEdgeStyle;rounded=0;orthogonalLoop=1;jettySize=auto;html=1;entryX=0.5;entryY=0;entryDx=0;entryDy=0;fontSize=14;" edge="1" parent="WIyWlLk6GJQsqaUBKTNV-1" source="eG1vH4hT44DBcO4QuvE--126" target="eG1vH4hT44DBcO4QuvE--141">
          <mxGeometry relative="1" as="geometry">
            <mxPoint x="440" y="820" as="targetPoint" />
          </mxGeometry>
        </mxCell>
        <mxCell id="eG1vH4hT44DBcO4QuvE--126" value="Process&amp;nbsp;&lt;b style=&quot;border-color: var(--border-color); font-size: 14px;&quot;&gt;Credit Card &lt;/b&gt;&lt;span style=&quot;border-color: var(--border-color); font-size: 14px;&quot;&gt;payment&lt;/span&gt;" style="rounded=1;whiteSpace=wrap;html=1;absoluteArcSize=1;arcSize=14;strokeWidth=2;fontSize=14;spacing=5;spacingLeft=2;spacingRight=2;" vertex="1" parent="WIyWlLk6GJQsqaUBKTNV-1">
          <mxGeometry x="360" y="700" width="160" height="70" as="geometry" />
        </mxCell>
        <mxCell id="eG1vH4hT44DBcO4QuvE--127" value="" style="edgeStyle=orthogonalEdgeStyle;rounded=0;orthogonalLoop=1;jettySize=auto;html=1;fontSize=14;" edge="1" parent="WIyWlLk6GJQsqaUBKTNV-1" target="eG1vH4hT44DBcO4QuvE--129">
          <mxGeometry relative="1" as="geometry">
            <mxPoint x="640" y="660" as="sourcePoint" />
          </mxGeometry>
        </mxCell>
        <mxCell id="eG1vH4hT44DBcO4QuvE--128" value="Yes" style="edgeLabel;html=1;align=center;verticalAlign=middle;resizable=0;points=[];fontSize=14;" vertex="1" connectable="0" parent="eG1vH4hT44DBcO4QuvE--127">
          <mxGeometry x="-0.08" y="2" relative="1" as="geometry">
            <mxPoint x="-2" y="-3" as="offset" />
          </mxGeometry>
        </mxCell>
        <mxCell id="eG1vH4hT44DBcO4QuvE--129" value="Process &lt;b style=&quot;font-size: 14px;&quot;&gt;Bank Card&lt;/b&gt; payment" style="rounded=1;whiteSpace=wrap;html=1;absoluteArcSize=1;arcSize=14;strokeWidth=2;fontSize=14;spacing=5;spacingLeft=2;spacingRight=2;" vertex="1" parent="WIyWlLk6GJQsqaUBKTNV-1">
          <mxGeometry x="560" y="700" width="160" height="70" as="geometry" />
        </mxCell>
        <mxCell id="eG1vH4hT44DBcO4QuvE--130" value="" style="edgeStyle=orthogonalEdgeStyle;rounded=0;orthogonalLoop=1;jettySize=auto;html=1;fontSize=14;" edge="1" parent="WIyWlLk6GJQsqaUBKTNV-1" target="eG1vH4hT44DBcO4QuvE--133">
          <mxGeometry relative="1" as="geometry">
            <mxPoint x="840" y="660" as="sourcePoint" />
          </mxGeometry>
        </mxCell>
        <mxCell id="eG1vH4hT44DBcO4QuvE--131" value="Yes" style="edgeLabel;html=1;align=center;verticalAlign=middle;resizable=0;points=[];fontSize=14;" vertex="1" connectable="0" parent="eG1vH4hT44DBcO4QuvE--130">
          <mxGeometry x="-0.08" y="2" relative="1" as="geometry">
            <mxPoint x="-2" y="-3" as="offset" />
          </mxGeometry>
        </mxCell>
        <mxCell id="eG1vH4hT44DBcO4QuvE--132" style="edgeStyle=orthogonalEdgeStyle;rounded=0;orthogonalLoop=1;jettySize=auto;html=1;entryX=0.5;entryY=0;entryDx=0;entryDy=0;fontSize=14;" edge="1" parent="WIyWlLk6GJQsqaUBKTNV-1" source="eG1vH4hT44DBcO4QuvE--133" target="eG1vH4hT44DBcO4QuvE--141">
          <mxGeometry relative="1" as="geometry">
            <mxPoint x="440" y="820" as="targetPoint" />
            <Array as="points">
              <mxPoint x="840" y="800" />
              <mxPoint x="440" y="800" />
            </Array>
          </mxGeometry>
        </mxCell>
        <mxCell id="eG1vH4hT44DBcO4QuvE--133" value="Process &lt;b style=&quot;font-size: 14px;&quot;&gt;NFC Phone&lt;/b&gt; payment" style="rounded=1;whiteSpace=wrap;html=1;absoluteArcSize=1;arcSize=14;strokeWidth=2;fontSize=14;spacing=5;spacingLeft=2;spacingRight=2;" vertex="1" parent="WIyWlLk6GJQsqaUBKTNV-1">
          <mxGeometry x="760" y="700" width="160" height="70" as="geometry" />
        </mxCell>
        <mxCell id="eG1vH4hT44DBcO4QuvE--134" value="" style="edgeStyle=orthogonalEdgeStyle;rounded=0;orthogonalLoop=1;jettySize=auto;html=1;exitX=1;exitY=0.5;exitDx=0;exitDy=0;fontSize=14;" edge="1" parent="WIyWlLk6GJQsqaUBKTNV-1" source="eG1vH4hT44DBcO4QuvE--124" target="eG1vH4hT44DBcO4QuvE--136">
          <mxGeometry relative="1" as="geometry">
            <mxPoint x="1050" y="660" as="sourcePoint" />
          </mxGeometry>
        </mxCell>
        <mxCell id="eG1vH4hT44DBcO4QuvE--135" value="No" style="edgeLabel;html=1;align=center;verticalAlign=middle;resizable=0;points=[];fontSize=14;" vertex="1" connectable="0" parent="eG1vH4hT44DBcO4QuvE--134">
          <mxGeometry x="-0.08" y="2" relative="1" as="geometry">
            <mxPoint x="-82" y="2" as="offset" />
          </mxGeometry>
        </mxCell>
        <mxCell id="eG1vH4hT44DBcO4QuvE--136" value="Process&amp;nbsp;&lt;b style=&quot;font-size: 14px;&quot;&gt;Vending Machine App&lt;/b&gt; payment&amp;nbsp;" style="rounded=1;whiteSpace=wrap;html=1;absoluteArcSize=1;arcSize=14;strokeWidth=2;fontSize=14;spacing=5;spacingLeft=2;spacingRight=2;" vertex="1" parent="WIyWlLk6GJQsqaUBKTNV-1">
          <mxGeometry x="962" y="700" width="158" height="70" as="geometry" />
        </mxCell>
        <mxCell id="eG1vH4hT44DBcO4QuvE--137" style="edgeStyle=orthogonalEdgeStyle;rounded=0;orthogonalLoop=1;jettySize=auto;html=1;entryX=0.5;entryY=0;entryDx=0;entryDy=0;fontSize=14;" edge="1" parent="WIyWlLk6GJQsqaUBKTNV-1" source="eG1vH4hT44DBcO4QuvE--129" target="eG1vH4hT44DBcO4QuvE--141">
          <mxGeometry relative="1" as="geometry">
            <mxPoint x="440" y="820" as="targetPoint" />
            <Array as="points">
              <mxPoint x="640" y="800" />
              <mxPoint x="440" y="800" />
            </Array>
          </mxGeometry>
        </mxCell>
        <mxCell id="eG1vH4hT44DBcO4QuvE--138" style="edgeStyle=orthogonalEdgeStyle;rounded=0;orthogonalLoop=1;jettySize=auto;html=1;entryX=0.5;entryY=0;entryDx=0;entryDy=0;fontSize=14;" edge="1" parent="WIyWlLk6GJQsqaUBKTNV-1" source="eG1vH4hT44DBcO4QuvE--136" target="eG1vH4hT44DBcO4QuvE--141">
          <mxGeometry relative="1" as="geometry">
            <mxPoint x="440" y="820" as="targetPoint" />
            <Array as="points">
              <mxPoint x="1041" y="800" />
              <mxPoint x="440" y="800" />
            </Array>
          </mxGeometry>
        </mxCell>
        <mxCell id="eG1vH4hT44DBcO4QuvE--140" value="" style="edgeStyle=orthogonalEdgeStyle;rounded=0;orthogonalLoop=1;jettySize=auto;html=1;entryX=0.5;entryY=0;entryDx=0;entryDy=0;fontSize=14;" edge="1" parent="WIyWlLk6GJQsqaUBKTNV-1" source="eG1vH4hT44DBcO4QuvE--141" target="eG1vH4hT44DBcO4QuvE--145">
          <mxGeometry relative="1" as="geometry">
            <mxPoint x="440.0588235294117" y="970" as="targetPoint" />
          </mxGeometry>
        </mxCell>
        <mxCell id="eG1vH4hT44DBcO4QuvE--154" value="Yes" style="edgeLabel;html=1;align=center;verticalAlign=middle;resizable=0;points=[];fontSize=14;" vertex="1" connectable="0" parent="eG1vH4hT44DBcO4QuvE--140">
          <mxGeometry x="0.2461" relative="1" as="geometry">
            <mxPoint y="-15" as="offset" />
          </mxGeometry>
        </mxCell>
        <mxCell id="eG1vH4hT44DBcO4QuvE--157" style="edgeStyle=orthogonalEdgeStyle;rounded=0;orthogonalLoop=1;jettySize=auto;html=1;entryX=0.5;entryY=0;entryDx=0;entryDy=0;fontSize=14;" edge="1" parent="WIyWlLk6GJQsqaUBKTNV-1" source="eG1vH4hT44DBcO4QuvE--141" target="eG1vH4hT44DBcO4QuvE--52">
          <mxGeometry relative="1" as="geometry">
            <Array as="points">
              <mxPoint x="230" y="885" />
              <mxPoint x="230" y="350" />
              <mxPoint x="440" y="350" />
            </Array>
          </mxGeometry>
        </mxCell>
        <mxCell id="eG1vH4hT44DBcO4QuvE--158" value="No" style="edgeLabel;html=1;align=center;verticalAlign=middle;resizable=0;points=[];fontSize=14;" vertex="1" connectable="0" parent="eG1vH4hT44DBcO4QuvE--157">
          <mxGeometry x="-0.9638" y="1" relative="1" as="geometry">
            <mxPoint x="2" y="-1" as="offset" />
          </mxGeometry>
        </mxCell>
        <mxCell id="eG1vH4hT44DBcO4QuvE--141" value="Is payment successful?" style="rhombus;whiteSpace=wrap;html=1;strokeWidth=2;rounded=1;arcSize=12;spacing=0;spacingLeft=30;spacingRight=30;fontSize=14;spacingBottom=5;" vertex="1" parent="WIyWlLk6GJQsqaUBKTNV-1">
          <mxGeometry x="380" y="830" width="120" height="110" as="geometry" />
        </mxCell>
        <mxCell id="eG1vH4hT44DBcO4QuvE--142" value="" style="edgeStyle=orthogonalEdgeStyle;rounded=0;orthogonalLoop=1;jettySize=auto;html=1;fontSize=14;" edge="1" parent="WIyWlLk6GJQsqaUBKTNV-1" source="eG1vH4hT44DBcO4QuvE--143">
          <mxGeometry relative="1" as="geometry">
            <mxPoint x="440.0588235294117" y="1210" as="targetPoint" />
          </mxGeometry>
        </mxCell>
        <mxCell id="eG1vH4hT44DBcO4QuvE--143" value="Update &lt;b style=&quot;font-size: 14px;&quot;&gt;Product.quantity&lt;/b&gt; for session items" style="whiteSpace=wrap;html=1;fontSize=14;strokeWidth=2;rounded=1;arcSize=12;spacing=0;spacingLeft=20;spacingRight=20;spacingBottom=0;align=center;" vertex="1" parent="WIyWlLk6GJQsqaUBKTNV-1">
          <mxGeometry x="360" y="1100" width="160" height="80" as="geometry" />
        </mxCell>
        <mxCell id="eG1vH4hT44DBcO4QuvE--144" value="" style="edgeStyle=orthogonalEdgeStyle;rounded=0;orthogonalLoop=1;jettySize=auto;html=1;fontSize=14;" edge="1" parent="WIyWlLk6GJQsqaUBKTNV-1" source="eG1vH4hT44DBcO4QuvE--145" target="eG1vH4hT44DBcO4QuvE--143">
          <mxGeometry relative="1" as="geometry" />
        </mxCell>
        <mxCell id="eG1vH4hT44DBcO4QuvE--145" value="Dispense session items to customer" style="whiteSpace=wrap;html=1;fontSize=14;strokeWidth=2;rounded=1;arcSize=12;spacing=0;spacingLeft=20;spacingRight=20;spacingBottom=0;align=center;" vertex="1" parent="WIyWlLk6GJQsqaUBKTNV-1">
          <mxGeometry x="360" y="980" width="160" height="60" as="geometry" />
        </mxCell>
        <mxCell id="eG1vH4hT44DBcO4QuvE--146" value="" style="edgeStyle=orthogonalEdgeStyle;rounded=0;orthogonalLoop=1;jettySize=auto;html=1;fontSize=14;" edge="1" parent="WIyWlLk6GJQsqaUBKTNV-1" source="eG1vH4hT44DBcO4QuvE--150" target="eG1vH4hT44DBcO4QuvE--151">
          <mxGeometry relative="1" as="geometry" />
        </mxCell>
        <mxCell id="eG1vH4hT44DBcO4QuvE--147" value="Yes" style="edgeLabel;html=1;align=center;verticalAlign=middle;resizable=0;points=[];fontSize=14;" vertex="1" connectable="0" parent="eG1vH4hT44DBcO4QuvE--146">
          <mxGeometry x="-0.1506" y="-3" relative="1" as="geometry">
            <mxPoint x="-5" y="-3" as="offset" />
          </mxGeometry>
        </mxCell>
        <mxCell id="eG1vH4hT44DBcO4QuvE--148" value="" style="edgeStyle=orthogonalEdgeStyle;rounded=0;orthogonalLoop=1;jettySize=auto;html=1;entryX=0.5;entryY=0;entryDx=0;entryDy=0;entryPerimeter=0;fontSize=14;" edge="1" parent="WIyWlLk6GJQsqaUBKTNV-1" source="eG1vH4hT44DBcO4QuvE--150" target="eG1vH4hT44DBcO4QuvE--153">
          <mxGeometry relative="1" as="geometry">
            <mxPoint x="440" y="1400" as="targetPoint" />
          </mxGeometry>
        </mxCell>
        <mxCell id="eG1vH4hT44DBcO4QuvE--149" value="No" style="edgeLabel;html=1;align=center;verticalAlign=middle;resizable=0;points=[];fontSize=14;" vertex="1" connectable="0" parent="eG1vH4hT44DBcO4QuvE--148">
          <mxGeometry x="-0.5059" y="4" relative="1" as="geometry">
            <mxPoint x="-4" y="-8" as="offset" />
          </mxGeometry>
        </mxCell>
        <mxCell id="eG1vH4hT44DBcO4QuvE--150" value="is &lt;b style=&quot;font-size: 14px;&quot;&gt;Product.quantity&lt;/b&gt; less than &lt;b style=&quot;font-size: 14px;&quot;&gt;Product.minQuantity&lt;/b&gt;?" style="rhombus;whiteSpace=wrap;html=1;strokeWidth=2;rounded=1;arcSize=12;spacing=0;spacingLeft=60;spacingRight=60;fontSize=14;spacingBottom=5;" vertex="1" parent="WIyWlLk6GJQsqaUBKTNV-1">
          <mxGeometry x="320" y="1210" width="240" height="120" as="geometry" />
        </mxCell>
        <mxCell id="eG1vH4hT44DBcO4QuvE--160" value="" style="edgeStyle=orthogonalEdgeStyle;rounded=0;orthogonalLoop=1;jettySize=auto;html=1;fontSize=14;" edge="1" parent="WIyWlLk6GJQsqaUBKTNV-1" source="eG1vH4hT44DBcO4QuvE--151" target="eG1vH4hT44DBcO4QuvE--159">
          <mxGeometry relative="1" as="geometry" />
        </mxCell>
        <mxCell id="eG1vH4hT44DBcO4QuvE--151" value="Create and send order for Product" style="whiteSpace=wrap;html=1;fontSize=14;strokeWidth=2;rounded=1;arcSize=12;spacing=0;spacingLeft=15;spacingRight=15;spacingBottom=0;" vertex="1" parent="WIyWlLk6GJQsqaUBKTNV-1">
          <mxGeometry x="620" y="1230" width="130" height="80" as="geometry" />
        </mxCell>
        <mxCell id="eG1vH4hT44DBcO4QuvE--152" style="edgeStyle=orthogonalEdgeStyle;rounded=0;orthogonalLoop=1;jettySize=auto;html=1;entryX=0.5;entryY=0;entryDx=0;entryDy=0;entryPerimeter=0;exitX=0.5;exitY=1;exitDx=0;exitDy=0;fontSize=14;" edge="1" parent="WIyWlLk6GJQsqaUBKTNV-1" source="eG1vH4hT44DBcO4QuvE--159" target="eG1vH4hT44DBcO4QuvE--153">
          <mxGeometry relative="1" as="geometry">
            <mxPoint x="440" y="1400" as="targetPoint" />
            <Array as="points">
              <mxPoint x="863" y="1370" />
              <mxPoint x="440" y="1370" />
            </Array>
            <mxPoint x="863" y="1340" as="sourcePoint" />
          </mxGeometry>
        </mxCell>
        <mxCell id="eG1vH4hT44DBcO4QuvE--161" value="No" style="edgeLabel;html=1;align=center;verticalAlign=middle;resizable=0;points=[];fontSize=14;" vertex="1" connectable="0" parent="eG1vH4hT44DBcO4QuvE--152">
          <mxGeometry x="-0.9487" y="1" relative="1" as="geometry">
            <mxPoint x="-1" y="-3" as="offset" />
          </mxGeometry>
        </mxCell>
        <mxCell id="eG1vH4hT44DBcO4QuvE--153" value="End/Go to&amp;nbsp;&lt;br style=&quot;font-size: 14px;&quot;&gt;&lt;b style=&quot;font-size: 14px;&quot;&gt;Idle/Ready&lt;/b&gt; state" style="strokeWidth=2;html=1;shape=mxgraph.flowchart.terminator;whiteSpace=wrap;rounded=0;fontSize=14;align=center;spacingLeft=15;spacingRight=15;" vertex="1" parent="WIyWlLk6GJQsqaUBKTNV-1">
          <mxGeometry x="360" y="1400" width="160" height="60" as="geometry" />
        </mxCell>
        <mxCell id="eG1vH4hT44DBcO4QuvE--162" style="edgeStyle=orthogonalEdgeStyle;rounded=0;orthogonalLoop=1;jettySize=auto;html=1;entryX=0.5;entryY=0;entryDx=0;entryDy=0;fontSize=14;" edge="1" parent="WIyWlLk6GJQsqaUBKTNV-1" source="eG1vH4hT44DBcO4QuvE--159" target="eG1vH4hT44DBcO4QuvE--143">
          <mxGeometry relative="1" as="geometry">
            <Array as="points">
              <mxPoint x="1000" y="1270" />
              <mxPoint x="1000" y="1080" />
              <mxPoint x="440" y="1080" />
            </Array>
          </mxGeometry>
        </mxCell>
        <mxCell id="eG1vH4hT44DBcO4QuvE--163" value="Yes" style="edgeLabel;html=1;align=center;verticalAlign=middle;resizable=0;points=[];fontSize=14;" vertex="1" connectable="0" parent="eG1vH4hT44DBcO4QuvE--162">
          <mxGeometry x="-0.9521" y="-1" relative="1" as="geometry">
            <mxPoint x="-5" y="-1" as="offset" />
          </mxGeometry>
        </mxCell>
        <mxCell id="eG1vH4hT44DBcO4QuvE--159" value="are there more products to update?" style="rhombus;whiteSpace=wrap;html=1;fontSize=14;strokeWidth=2;rounded=1;arcSize=12;spacing=0;spacingLeft=20;spacingRight=20;spacingBottom=0;" vertex="1" parent="WIyWlLk6GJQsqaUBKTNV-1">
          <mxGeometry x="800" y="1210" width="125" height="120" as="geometry" />
        </mxCell>
      </root>
    </mxGraphModel>
  </diagram>
</mxfile>
